<svg xmlns="http://www.w3.org/2000/svg" width="13.369" height="7.129" viewBox="0 0 13.369 7.129">
  <g id="battery-full" transform="translate(71.791 43.695)">
    <g id="Group_686" data-name="Group 686" transform="translate(-71.791 -43.695)">
      <path id="Path_705" data-name="Path 705" d="M2.75,8.25h8.356v3.564H2.75Z" transform="translate(-1.079 -6.468)"/>
      <path id="Path_706" data-name="Path 706" d="M1.671,5.5A1.729,1.729,0,0,0,0,7.282v3.564a1.729,1.729,0,0,0,1.671,1.782h8.356A1.729,1.729,0,0,0,11.7,10.847V7.282A1.729,1.729,0,0,0,10.027,5.5Zm8.356.891a.865.865,0,0,1,.836.891v3.564a.865.865,0,0,1-.836.891H1.671a.865.865,0,0,1-.836-.891V7.282a.865.865,0,0,1,.836-.891Zm3.342,2.673A1.3,1.3,0,0,1,12.116,10.4V7.728A1.3,1.3,0,0,1,13.369,9.064Z" transform="translate(0 -5.5)"/>
    </g>
  </g>
</svg>
