<svg xmlns="http://www.w3.org/2000/svg" width="14.56" height="12.88" viewBox="0 0 14.56 12.88">
  <g id="camera" transform="translate(-1.68 -2.24)">
    <path id="Path_2092" data-name="Path 2092" d="M14.56,3.92H12.621l-.952-1.428A.553.553,0,0,0,11.2,2.24H6.72a.553.553,0,0,0-.469.252L5.3,3.92H3.36A1.687,1.687,0,0,0,1.68,5.6v7.84a1.687,1.687,0,0,0,1.68,1.68h11.2a1.687,1.687,0,0,0,1.68-1.68V5.6A1.687,1.687,0,0,0,14.56,3.92Zm.56,9.52a.56.56,0,0,1-.56.56H3.36a.56.56,0,0,1-.56-.56V5.6a.56.56,0,0,1,.56-.56H5.6a.553.553,0,0,0,.469-.252L7.021,3.36H10.9l.952,1.428a.553.553,0,0,0,.469.252h2.24a.56.56,0,0,1,.56.56ZM8.96,6.16a3.08,3.08,0,1,0,3.08,3.08A3.08,3.08,0,0,0,8.96,6.16Zm0,5.04a1.96,1.96,0,1,1,1.96-1.96A1.96,1.96,0,0,1,8.96,11.2Z"/>
  </g>
</svg>
