<svg xmlns="http://www.w3.org/2000/svg" width="10.5" height="15" viewBox="0 0 10.5 15">
  <g id="mic-24-regular" transform="translate(-3.75 -1.5)">
    <g id="Group_3415" data-name="Group 3415">
      <path id="Path_2093" data-name="Path 2093" d="M13.688,8.25a.562.562,0,0,1,.557.486l.005.077v.375a5.063,5.063,0,0,1-4.687,5.049v1.7a.562.562,0,0,1-1.12.076l-.005-.076v-1.7A5.062,5.062,0,0,1,3.753,9.365l0-.177V8.813a.563.563,0,0,1,1.12-.076l.005.076v.375a3.938,3.938,0,0,0,3.776,3.935l.162,0h.375a3.938,3.938,0,0,0,3.935-3.776l0-.162V8.813A.563.563,0,0,1,13.688,8.25ZM9,1.5a3,3,0,0,1,3,3V9A3,3,0,0,1,6,9V4.5a3,3,0,0,1,3-3ZM9,2.625A1.875,1.875,0,0,0,7.125,4.5V9a1.875,1.875,0,0,0,3.75,0V4.5A1.875,1.875,0,0,0,9,2.625Z"/>
    </g>
  </g>
</svg>
