<svg xmlns="http://www.w3.org/2000/svg" width="11.52" height="11.52" viewBox="0 0 11.52 11.52">
  <g id="sticker" transform="translate(-1.92 -1.92)">
    <path id="Path_2091" data-name="Path 2091" d="M13.434,8.232a.294.294,0,0,0,.006-.072V5.28a3.36,3.36,0,0,0-3.36-3.36H5.28A3.36,3.36,0,0,0,1.92,5.28v4.8a3.36,3.36,0,0,0,3.36,3.36H8.244l.066-.018a11.983,11.983,0,0,0,5.106-5.106l.018-.066ZM2.88,10.08V5.28a2.4,2.4,0,0,1,2.4-2.4h4.8a2.4,2.4,0,0,1,2.4,2.4v2.4H11.04a3.36,3.36,0,0,0-3.36,3.36v1.44H5.28a2.4,2.4,0,0,1-2.4-2.4Zm5.76,2.106V11.04a2.4,2.4,0,0,1,2.4-2.4h1.146A13.468,13.468,0,0,1,8.64,12.186Z"/>
  </g>
</svg>
