<svg xmlns="http://www.w3.org/2000/svg" width="11.441" height="8.008" viewBox="0 0 11.441 8.008">
  <g id="wifi-alt" transform="translate(68 38.59)">
    <path id="Path_704" data-name="Path 704" d="M0,3.762A7.962,7.962,0,0,1,3.647,1.681a8.17,8.17,0,0,1,4.172,0,7.8,7.8,0,0,1,3.623,2.082L10.417,4.8a6.446,6.446,0,0,0-4.7-1.925A6.365,6.365,0,0,0,1.049,4.8ZM4.172,7.878a2.082,2.082,0,0,1,1.549-.65,2.162,2.162,0,0,1,1.573.65L5.733,9.418Zm-2.1-2.07A5.047,5.047,0,0,1,5.721,4.34,5.047,5.047,0,0,1,9.368,5.808L8.319,6.843a3.563,3.563,0,0,0-2.6-1.059,3.563,3.563,0,0,0-2.6,1.059Z" transform="translate(-68 -40)"/>
  </g>
</svg>
