<svg xmlns="http://www.w3.org/2000/svg" width="21.938" height="20.724" viewBox="0 0 21.938 20.724">
  <g id="Group_3301" data-name="Group 3301" transform="translate(0.3 0.418)">
    <g id="Subtraction_5" data-name="Subtraction 5" transform="translate(16.763 19.887) rotate(180)" fill="#f46e9d" stroke-linecap="square">
      <path d="M 14.95540714263916 13.70318031311035 L 14.95540714263916 13.25830078125 L 14.95540714263916 10.15879058837891 L 14.95540714263916 10.13840007781982 L 14.96084690093994 10.11876010894775 C 15.11976718902588 9.544890403747559 15.19960689544678 8.952010154724121 15.19814682006836 8.356600761413574 C 15.19378662109375 4.676620483398438 12.15053653717041 1.682900428771973 8.414226531982422 1.682900428771973 C 7.196026802062988 1.682900428771973 6.001186847686768 2.00471043586731 4.958887100219727 2.613530397415161 L 4.707586765289307 2.761320352554321 L 4.654176712036133 2.792730331420898 L 4.59416675567627 2.777290344238281 L 2.220189332962036 2.166428804397583 L 2.851946830749512 4.435380458831787 L 2.869826793670654 4.499590396881104 L 2.834146976470947 4.555900573730469 L 2.668836832046509 4.816760540008545 C 1.989276885986328 5.876420497894287 1.630306839942932 7.103160381317139 1.630306839942932 8.365030288696289 C 1.630306839942932 8.872700691223145 1.689076900482178 9.378809928894043 1.804996848106384 9.869290351867676 L 1.809016823768616 9.886310577392578 L 1.809016823768616 9.903790473937988 L 1.809016823768616 13.16598033905029 L 1.809016823768616 13.62178993225098 L 1.538326859474182 13.25506019592285 C 0.4796068668365479 11.82066059112549 -0.08000313490629196 10.12819004058838 -0.08000313490629196 8.360630035400391 C -0.08000313490629196 6.916644096374512 0.3005421757698059 5.491136074066162 1.021077513694763 4.233773231506348 L -0.1430431306362152 0.04160039126873016 L -0.0005136736435815692 0.00202585756778717 L 0.002012304030358791 -0.0005703901406377554 L 0.03888686373829842 -0.143789604306221 L 4.405639171600342 0.9803943634033203 C 5.633806228637695 0.3346903026103973 7.018572807312012 -0.00637960946187377 8.414226531982422 -0.00637960946187377 C 13.09788703918457 -0.00637960946187377 16.90838623046875 3.743030309677124 16.91293716430664 8.351680755615234 C 16.91293716430664 10.14354991912842 16.31340599060059 11.91829013824463 15.22478675842285 13.34913063049316 L 14.95540714263916 13.70318031311035 Z" stroke="none"/>
      <path d="M -3.814697265625e-06 0 L 0.00148773193359375 0.001470565795898437 L 1.182456970214844 4.25432014465332 C 0.4542160034179688 5.502920627593994 0.06999778747558594 6.922980308532715 0.06999778747558594 8.360630035400391 C 0.06999778747558594 10.09576988220215 0.6195278167724609 11.75764083862305 1.659016609191895 13.16597080230713 L 1.659016609191895 9.903790473937988 C 1.539876937866211 9.399660110473633 1.480306625366211 8.882340431213379 1.480306625366211 8.365030288696289 C 1.480306625366211 7.075390338897705 1.846667289733887 5.820930480957031 2.542137145996094 4.736470222473145 L 2.707447052001953 4.475610733032227 L 2.006007194519043 1.956430435180664 L 4.631546974182129 2.632019996643066 L 4.883236885070801 2.484010696411133 C 5.949526786804199 1.861170768737793 7.169217109680176 1.532900810241699 8.414226531982422 1.532900810241699 C 12.2341365814209 1.532900810241699 15.34368705749512 4.592850685119629 15.34814643859863 8.356229782104492 C 15.34963703155518 8.965880393981934 15.26772689819336 9.572589874267578 15.10540676116943 10.15879058837891 L 15.10540676116943 13.25830078125 C 16.17468643188477 11.85289001464844 16.76293754577637 10.11043071746826 16.76293754577637 8.35183048248291 C 16.75846672058105 3.826400756835938 13.01450729370117 0.143620491027832 8.418696403503418 0.143620491027832 L 8.414226531982422 0.143620491027832 C 7.02476692199707 0.143620491027832 5.64423656463623 0.4880104064941406 4.42454719543457 1.14015007019043 L -3.814697265625e-06 0 M -0.426483154296875 -0.4184894561767578 L 4.38731861114502 0.8207826614379883 C 5.624114036560059 0.1811580657958984 7.013748168945312 -0.1563796997070312 8.414226531982422 -0.1563796997070312 C 13.18051719665527 -0.1563796997070312 17.05830764770508 3.660250663757324 17.06293678283691 8.351530075073242 C 17.06293678283691 10.17617034912109 16.4525260925293 11.9831600189209 15.34415721893311 13.43994998931885 L 14.80540657043457 14.14806079864502 L 14.80540657043457 10.11802005767822 L 14.81628704071045 10.07873058319092 C 14.97155666351318 9.517980575561523 15.04956722259521 8.938690185546875 15.04814720153809 8.356960296630859 C 15.0438871383667 4.759410858154297 12.06791687011719 1.832900047302246 8.414226531982422 1.832900047302246 C 7.222586631774902 1.832900047302246 6.053916931152344 2.14763069152832 5.034546852111816 2.743060111999512 L 4.676796913146973 2.95344066619873 L 2.434368133544922 2.376430511474609 L 3.032217025756836 4.523580551147461 L 2.795536994934082 4.897050857543945 C 2.131067276000977 5.93319034576416 1.780306816101074 7.131920337677002 1.780306816101074 8.365030288696289 C 1.780306816101074 8.861100196838379 1.837726593017578 9.355600357055664 1.950977325439453 9.834790229797363 L 1.959016799926758 9.868820190429688 L 1.959016799926758 14.0775899887085 L 1.417646408081055 13.34413051605225 C 0.3397464752197266 11.88376045227051 -0.2300033569335938 10.16049003601074 -0.2300033569335938 8.360630035400391 C -0.2300033569335938 6.911344528198242 0.1464290618896484 5.480504989624023 0.8598728179931641 4.213866233825684 L -0.426483154296875 -0.4184894561767578 Z" stroke="none" fill="#f46e9d"/>
    </g>
    <g id="Subtraction_6" data-name="Subtraction 6" transform="translate(4.575)" fill="#f46e9d" stroke-linecap="square">
      <path d="M 14.95540714263916 13.70318031311035 L 14.95540714263916 13.25830078125 L 14.95540714263916 10.15879058837891 L 14.95540714263916 10.13840007781982 L 14.96084690093994 10.11876010894775 C 15.11976718902588 9.544890403747559 15.19960689544678 8.952010154724121 15.19814682006836 8.356600761413574 C 15.19378662109375 4.676620483398438 12.15053653717041 1.682900428771973 8.414226531982422 1.682900428771973 C 7.196026802062988 1.682900428771973 6.001186847686768 2.00471043586731 4.958887100219727 2.613530397415161 L 4.707586765289307 2.761320352554321 L 4.654176712036133 2.792730331420898 L 4.59416675567627 2.777290344238281 L 2.220189332962036 2.166428804397583 L 2.851946830749512 4.435380458831787 L 2.869826793670654 4.499590396881104 L 2.834146976470947 4.555900573730469 L 2.668836832046509 4.816760540008545 C 1.989276885986328 5.876420497894287 1.630306839942932 7.103160381317139 1.630306839942932 8.365030288696289 C 1.630306839942932 8.872700691223145 1.689076900482178 9.378809928894043 1.804996848106384 9.869290351867676 L 1.809016823768616 9.886310577392578 L 1.809016823768616 9.903790473937988 L 1.809016823768616 13.16598033905029 L 1.809016823768616 13.62178993225098 L 1.538326859474182 13.25506019592285 C 0.4796068668365479 11.82066059112549 -0.08000313490629196 10.12819004058838 -0.08000313490629196 8.360630035400391 C -0.08000313490629196 6.916644096374512 0.3005421757698059 5.491136074066162 1.021077513694763 4.233773231506348 L -0.1430431306362152 0.04160039126873016 L -0.0005136736435815692 0.00202585756778717 L 0.002012304030358791 -0.0005703901406377554 L 0.03888686373829842 -0.143789604306221 L 4.405639171600342 0.9803943634033203 C 5.633806228637695 0.3346903026103973 7.018572807312012 -0.00637960946187377 8.414226531982422 -0.00637960946187377 C 13.09788703918457 -0.00637960946187377 16.90838623046875 3.743030309677124 16.91293716430664 8.351680755615234 C 16.91293716430664 10.14354991912842 16.31340599060059 11.91829013824463 15.22478675842285 13.34913063049316 L 14.95540714263916 13.70318031311035 Z" stroke="none"/>
      <path d="M -3.814697265625e-06 0 L 0.00148773193359375 0.001470565795898437 L 1.182456970214844 4.25432014465332 C 0.4542160034179688 5.502920627593994 0.06999778747558594 6.922980308532715 0.06999778747558594 8.360630035400391 C 0.06999778747558594 10.09576988220215 0.6195278167724609 11.75764083862305 1.659016609191895 13.16597080230713 L 1.659016609191895 9.903790473937988 C 1.539876937866211 9.399660110473633 1.480306625366211 8.882340431213379 1.480306625366211 8.365030288696289 C 1.480306625366211 7.075390338897705 1.846667289733887 5.820930480957031 2.542137145996094 4.736470222473145 L 2.707447052001953 4.475610733032227 L 2.006007194519043 1.956430435180664 L 4.631546974182129 2.632019996643066 L 4.883236885070801 2.484010696411133 C 5.949526786804199 1.861170768737793 7.169217109680176 1.532900810241699 8.414226531982422 1.532900810241699 C 12.2341365814209 1.532900810241699 15.34368705749512 4.592850685119629 15.34814643859863 8.356229782104492 C 15.34963703155518 8.965880393981934 15.26772689819336 9.572589874267578 15.10540676116943 10.15879058837891 L 15.10540676116943 13.25830078125 C 16.17468643188477 11.85289001464844 16.76293754577637 10.11043071746826 16.76293754577637 8.35183048248291 C 16.75846672058105 3.826400756835938 13.01450729370117 0.143620491027832 8.418696403503418 0.143620491027832 L 8.414226531982422 0.143620491027832 C 7.02476692199707 0.143620491027832 5.64423656463623 0.4880104064941406 4.42454719543457 1.14015007019043 L -3.814697265625e-06 0 M -0.426483154296875 -0.4184894561767578 L 4.38731861114502 0.8207826614379883 C 5.624114036560059 0.1811580657958984 7.013748168945312 -0.1563796997070312 8.414226531982422 -0.1563796997070312 C 13.18051719665527 -0.1563796997070312 17.05830764770508 3.660250663757324 17.06293678283691 8.351530075073242 C 17.06293678283691 10.17617034912109 16.4525260925293 11.9831600189209 15.34415721893311 13.43994998931885 L 14.80540657043457 14.14806079864502 L 14.80540657043457 10.11802005767822 L 14.81628704071045 10.07873058319092 C 14.97155666351318 9.517980575561523 15.04956722259521 8.938690185546875 15.04814720153809 8.356960296630859 C 15.0438871383667 4.759410858154297 12.06791687011719 1.832900047302246 8.414226531982422 1.832900047302246 C 7.222586631774902 1.832900047302246 6.053916931152344 2.14763069152832 5.034546852111816 2.743060111999512 L 4.676796913146973 2.95344066619873 L 2.434368133544922 2.376430511474609 L 3.032217025756836 4.523580551147461 L 2.795536994934082 4.897050857543945 C 2.131067276000977 5.93319034576416 1.780306816101074 7.131920337677002 1.780306816101074 8.365030288696289 C 1.780306816101074 8.861100196838379 1.837726593017578 9.355600357055664 1.950977325439453 9.834790229797363 L 1.959016799926758 9.868820190429688 L 1.959016799926758 14.0775899887085 L 1.417646408081055 13.34413051605225 C 0.3397464752197266 11.88376045227051 -0.2300033569335938 10.16049003601074 -0.2300033569335938 8.360630035400391 C -0.2300033569335938 6.911344528198242 0.1464290618896484 5.480504989624023 0.8598728179931641 4.213866233825684 L -0.426483154296875 -0.4184894561767578 Z" stroke="none" fill="#f46e9d"/>
    </g>
  </g>
</svg>
